<svg xmlns="http://www.w3.org/2000/svg" xmlns:xlink="http://www.w3.org/1999/xlink" width="96" zoomAndPan="magnify" viewBox="0 0 72 42" height="56" preserveAspectRatio="xMidYMid meet" version="1.0"><defs><g/><clipPath id="12bcca45e9"><path d="M 44.273438 31.910156 L 50.214844 31.910156 L 50.214844 37.832031 L 44.273438 37.832031 Z M 44.273438 31.910156 " clip-rule="nonzero"/></clipPath><clipPath id="28bccd59f3"><path d="M 44.273438 37 L 46 37 L 46 38.234375 L 44.273438 38.234375 Z M 44.273438 37 " clip-rule="nonzero"/></clipPath><clipPath id="bced7e68fa"><path d="M 30.285156 9.628906 L 36.230469 9.628906 L 36.230469 15.550781 L 30.285156 15.550781 Z M 30.285156 9.628906 " clip-rule="nonzero"/></clipPath><clipPath id="f0b3a64cda"><path d="M 30.285156 14 L 32 14 L 32 15.953125 L 30.285156 15.953125 Z M 30.285156 14 " clip-rule="nonzero"/></clipPath></defs><g fill="#ffffff" fill-opacity="1"><g transform="translate(7.929681, 31.280427)"><g><path d="M 16.671875 -10.273438 L 16.058594 -10.273438 C 16.058594 -10.273438 15.664062 -7.625 12.109375 -7.625 L 9.121094 -7.625 L 9.121094 -7.035156 L 11.300781 -7.035156 L 11.300781 -6.617188 C 11.300781 -3.945312 14.4375 -2.28125 13.117188 -1.496094 C 11.375 -0.464844 8.382812 -3.1875 6.203125 -6.71875 C 3.921875 -10.394531 3.210938 -14.070312 4.609375 -14.953125 C 7.085938 -16.523438 8.335938 -10.566406 11.988281 -10.566406 C 15.640625 -10.566406 16.375 -13.949219 16.03125 -16.644531 L 15.46875 -16.644531 C 15.46875 -15.566406 15.222656 -14.878906 13.996094 -14.878906 C 12.796875 -14.878906 11.179688 -16.769531 8.75 -16.769531 C 4.167969 -16.769531 0.441406 -12.992188 0.441406 -8.308594 C 0.441406 -3.628906 4.167969 0.171875 8.75 0.171875 C 12.011719 0.171875 14.636719 -1.398438 16.671875 -3.726562 Z M 16.671875 -10.273438 "/></g></g></g><g fill="#ffffff" fill-opacity="1"><g transform="translate(25.186567, 31.280427)"><g><path d="M 0.492188 -16.621094 L 0.492188 0 L 5.859375 0 L 5.859375 -12.675781 C 5.859375 -15.859375 1.101562 -13.214844 1.101562 -16.621094 Z M 0.492188 -16.621094 "/></g></g></g><g fill="#ffffff" fill-opacity="1"><g transform="translate(31.535337, 31.280427)"><g><path d="M 7.769531 -13.433594 C 3.382812 -13.433594 0.441406 -10.640625 0.441406 -6.644531 C 0.441406 -2.625 3.382812 0.171875 7.769531 0.171875 C 12.132812 0.171875 15.078125 -2.625 15.078125 -6.644531 C 15.078125 -10.640625 12.132812 -13.433594 7.769531 -13.433594 Z M 11.253906 -1.128906 C 9.855469 -0.246094 8.015625 -2.207031 5.933594 -5.464844 C 3.847656 -8.75 2.867188 -11.253906 4.265625 -12.160156 C 5.664062 -13.042969 7.5 -11.082031 9.585938 -7.796875 C 11.644531 -4.535156 12.675781 -2.011719 11.253906 -1.128906 Z M 11.253906 -1.128906 "/></g></g></g><g fill="#ffffff" fill-opacity="1"><g transform="translate(47.051827, 31.280427)"><g><path d="M 15.910156 -0.734375 C 13.972656 -0.390625 12.332031 -1.691406 13.410156 -5.320312 C 14.660156 -8.410156 14.855469 -11.9375 13.925781 -13.261719 L 6.816406 -13.261719 C 10.613281 -11.226562 12.429688 -0.980469 8.238281 -0.734375 C 7.109375 -0.660156 6.152344 -1.371094 6.914062 -6.421875 C 7.230469 -8.582031 7.453125 -10.6875 6.277344 -12.183594 C 4.214844 -14.78125 -0.0507812 -12.894531 -1.691406 -10.738281 L -1.300781 -10.34375 C -0.539062 -11.105469 0.269531 -11.300781 0.929688 -10.738281 C 1.886719 -9.902344 1.742188 -8.53125 1.421875 -6.570312 C 0.808594 -2.746094 2.964844 0.0976562 7.230469 0.0976562 C 9.339844 0.0976562 11.007812 -1.203125 12.207031 -2.992188 C 12.207031 -1.128906 13.164062 0.0976562 14.90625 0.0976562 C 20.984375 0.0976562 22.847656 -9.976562 22.503906 -13.261719 L 15.394531 -13.261719 C 18.164062 -10.664062 19.980469 -1.445312 15.910156 -0.734375 Z M 15.910156 -0.734375 "/></g></g></g><g clip-path="url(#12bcca45e9)"><path fill="#ffffff" d="M 50.082031 34.703125 L 48.027344 34.226562 C 47.964844 34.210938 47.914062 34.164062 47.898438 34.097656 L 47.421875 32.042969 C 47.382812 31.863281 47.125 31.863281 47.085938 32.042969 L 46.609375 34.097656 C 46.597656 34.164062 46.546875 34.210938 46.480469 34.226562 L 44.425781 34.703125 C 44.246094 34.742188 44.246094 35 44.425781 35.039062 L 46.480469 35.515625 C 46.546875 35.527344 46.597656 35.578125 46.609375 35.644531 L 47.085938 37.699219 C 47.125 37.878906 47.382812 37.878906 47.421875 37.699219 L 47.898438 35.644531 C 47.914062 35.578125 47.964844 35.527344 48.027344 35.515625 L 50.082031 35.039062 C 50.261719 35 50.261719 34.742188 50.082031 34.703125 " fill-opacity="1" fill-rule="nonzero"/></g><g clip-path="url(#28bccd59f3)"><path fill="#ffffff" d="M 45.84375 39.152344 L 44.265625 38.789062 C 44.214844 38.777344 44.179688 38.738281 44.167969 38.691406 L 43.800781 37.113281 C 43.769531 36.976562 43.574219 36.976562 43.542969 37.113281 L 43.179688 38.691406 C 43.167969 38.738281 43.128906 38.777344 43.078125 38.789062 L 41.5 39.152344 C 41.363281 39.1875 41.363281 39.382812 41.5 39.414062 L 43.078125 39.777344 C 43.128906 39.789062 43.167969 39.828125 43.179688 39.878906 L 43.542969 41.453125 C 43.574219 41.59375 43.769531 41.59375 43.800781 41.453125 L 44.167969 39.878906 C 44.179688 39.828125 44.214844 39.789062 44.265625 39.777344 L 45.84375 39.414062 C 45.980469 39.382812 45.980469 39.1875 45.84375 39.152344 " fill-opacity="1" fill-rule="nonzero"/></g><g clip-path="url(#bced7e68fa)"><path fill="#ffffff" d="M 36.09375 12.421875 L 34.039062 11.945312 C 33.976562 11.929688 33.925781 11.882812 33.910156 11.816406 L 33.4375 9.761719 C 33.394531 9.582031 33.140625 9.582031 33.097656 9.761719 L 32.625 11.816406 C 32.609375 11.882812 32.558594 11.929688 32.492188 11.945312 L 30.4375 12.421875 C 30.257812 12.460938 30.257812 12.71875 30.4375 12.757812 L 32.492188 13.234375 C 32.558594 13.246094 32.609375 13.296875 32.625 13.363281 L 33.097656 15.417969 C 33.140625 15.597656 33.394531 15.597656 33.4375 15.417969 L 33.910156 13.363281 C 33.925781 13.296875 33.976562 13.246094 34.039062 13.234375 L 36.09375 12.757812 C 36.273438 12.71875 36.273438 12.460938 36.09375 12.421875 " fill-opacity="1" fill-rule="nonzero"/></g><g clip-path="url(#f0b3a64cda)"><path fill="#ffffff" d="M 31.855469 16.871094 L 30.277344 16.507812 C 30.230469 16.496094 30.191406 16.457031 30.179688 16.410156 L 29.816406 14.832031 C 29.78125 14.695312 29.585938 14.695312 29.554688 14.832031 L 29.191406 16.410156 C 29.179688 16.457031 29.140625 16.496094 29.089844 16.507812 L 27.511719 16.871094 C 27.375 16.90625 27.375 17.101562 27.511719 17.132812 L 29.089844 17.496094 C 29.140625 17.507812 29.179688 17.546875 29.191406 17.597656 L 29.554688 19.171875 C 29.585938 19.3125 29.78125 19.3125 29.816406 19.171875 L 30.179688 17.597656 C 30.191406 17.546875 30.230469 17.507812 30.277344 17.496094 L 31.855469 17.132812 C 31.992188 17.101562 31.992188 16.90625 31.855469 16.871094 " fill-opacity="1" fill-rule="nonzero"/></g><g fill="#ffffff" fill-opacity="1"><g transform="translate(3.792129, 19.077068)"><g><path d="M -0.828125 -4.609375 L 1.515625 -3.171875 C 1.960938 -2.890625 2.226562 -2.566406 2.3125 -2.203125 C 2.394531 -1.847656 2.296875 -1.453125 2.015625 -1.015625 C 1.867188 -0.765625 1.6875 -0.550781 1.46875 -0.375 C 1.257812 -0.195312 1.050781 -0.0820312 0.84375 -0.03125 L 0.671875 -0.375 C 0.867188 -0.4375 1.054688 -0.535156 1.234375 -0.671875 C 1.410156 -0.816406 1.5625 -0.992188 1.6875 -1.203125 C 1.894531 -1.535156 1.96875 -1.832031 1.90625 -2.09375 C 1.851562 -2.351562 1.660156 -2.582031 1.328125 -2.78125 L 1 -2.984375 C 1.09375 -2.765625 1.125 -2.539062 1.09375 -2.3125 C 1.070312 -2.082031 0.992188 -1.859375 0.859375 -1.640625 C 0.703125 -1.390625 0.507812 -1.191406 0.28125 -1.046875 C 0.0507812 -0.910156 -0.195312 -0.84375 -0.46875 -0.84375 C -0.75 -0.84375 -1.007812 -0.921875 -1.25 -1.078125 C -1.5 -1.234375 -1.6875 -1.429688 -1.8125 -1.671875 C -1.9375 -1.910156 -1.988281 -2.160156 -1.96875 -2.421875 C -1.945312 -2.691406 -1.859375 -2.957031 -1.703125 -3.21875 C -1.566406 -3.4375 -1.398438 -3.609375 -1.203125 -3.734375 C -1.003906 -3.867188 -0.785156 -3.941406 -0.546875 -3.953125 L -1.046875 -4.265625 Z M 0.5625 -1.859375 C 0.675781 -2.054688 0.738281 -2.253906 0.75 -2.453125 C 0.769531 -2.660156 0.726562 -2.851562 0.625 -3.03125 C 0.53125 -3.207031 0.394531 -3.351562 0.21875 -3.46875 C 0.03125 -3.582031 -0.160156 -3.640625 -0.359375 -3.640625 C -0.554688 -3.648438 -0.742188 -3.601562 -0.921875 -3.5 C -1.109375 -3.40625 -1.265625 -3.253906 -1.390625 -3.046875 C -1.503906 -2.859375 -1.566406 -2.664062 -1.578125 -2.46875 C -1.597656 -2.269531 -1.554688 -2.078125 -1.453125 -1.890625 C -1.347656 -1.710938 -1.203125 -1.566406 -1.015625 -1.453125 C -0.835938 -1.335938 -0.648438 -1.273438 -0.453125 -1.265625 C -0.253906 -1.265625 -0.0664062 -1.316406 0.109375 -1.421875 C 0.296875 -1.523438 0.445312 -1.671875 0.5625 -1.859375 Z M 0.5625 -1.859375 "/></g></g></g><g fill="#ffffff" fill-opacity="1"><g transform="translate(7.051015, 14.717786)"><g><path d="M -1.40625 -2.859375 L -1.0625 -3.109375 L 0.8125 -0.609375 L 0.46875 -0.359375 Z M -1.640625 -3.53125 C -1.710938 -3.476562 -1.789062 -3.457031 -1.875 -3.46875 C -1.957031 -3.476562 -2.019531 -3.519531 -2.0625 -3.59375 C -2.113281 -3.65625 -2.132812 -3.726562 -2.125 -3.8125 C -2.113281 -3.894531 -2.070312 -3.960938 -2 -4.015625 C -1.9375 -4.054688 -1.859375 -4.070312 -1.765625 -4.0625 C -1.679688 -4.050781 -1.613281 -4.015625 -1.5625 -3.953125 C -1.519531 -3.878906 -1.503906 -3.800781 -1.515625 -3.71875 C -1.535156 -3.632812 -1.578125 -3.570312 -1.640625 -3.53125 Z M -1.640625 -3.53125 "/></g></g></g><g fill="#ffffff" fill-opacity="1"><g transform="translate(9.655362, 12.995632)"><g><path d="M 0.125 -2.6875 C 0.15625 -2.914062 0.242188 -3.113281 0.390625 -3.28125 C 0.546875 -3.445312 0.757812 -3.570312 1.03125 -3.65625 L 1.171875 -3.28125 L 1.0625 -3.265625 C 0.75 -3.160156 0.539062 -2.984375 0.4375 -2.734375 C 0.332031 -2.484375 0.335938 -2.1875 0.453125 -1.84375 L 0.96875 -0.328125 L 0.5625 -0.1875 L -0.4375 -3.140625 L -0.0625 -3.265625 Z M 0.125 -2.6875 "/></g></g></g><g fill="#ffffff" fill-opacity="1"><g transform="translate(13.426606, 12.031342)"><g><path d="M 0.53125 -4.421875 L 0.953125 -4.421875 L 1.015625 -0.015625 L 0.59375 -0.015625 Z M 0.53125 -4.421875 "/></g></g></g></svg>